<?xml version="1.0" encoding="UTF-8" standalone="no" ?>
<!DOCTYPE svg PUBLIC "-//W3C//DTD SVG 1.1//EN" "http://www.w3.org/Graphics/SVG/1.1/DTD/svg11.dtd">
<svg xmlns="http://www.w3.org/2000/svg" xmlns:xlink="http://www.w3.org/1999/xlink" version="1.1" width="640" height="640" viewBox="0 0 640 640" xml:space="preserve">
<desc>Created with Fabric.js 4.6.0</desc>
<defs>
</defs>
<g transform="matrix(1 0 0 1 320.16 69.6)" id="LDsLJIngTrbuRGAuLC3aG"  >
<path style="stroke: none; stroke-width: 1; stroke-dasharray: none; stroke-linecap: butt; stroke-dashoffset: 0; stroke-linejoin: miter; stroke-miterlimit: 4; fill: rgb(70,77,85); fill-opacity: 0.99; fill-rule: nonzero; opacity: 1;" vector-effect="non-scaling-stroke"  transform=" translate(-250.66, -0.1)" d="M 48.31 0 Q 250.69 0 453.06 0 Q 453.03 0.1 453 0.21 L 48.25 0.21 Q 48.28 0.1 48.31 0 Z" stroke-linecap="round" />
</g>
<g transform="matrix(1 0 0 1 320 320.11)" id="zy01NTGSGGjWzLgv_U4qv"  >
<path style="stroke: none; stroke-width: 1; stroke-dasharray: none; stroke-linecap: butt; stroke-dashoffset: 0; stroke-linejoin: miter; stroke-miterlimit: 4; fill: rgb(54,122,133); fill-rule: nonzero; opacity: 1;" vector-effect="non-scaling-stroke"  transform=" translate(-250.5, -250.61)" d="M 48.25 0.21 L 453 0.21 Q 475.27 1.31 489.25 18 Q 500.07 30.92 501 48.31 Q 501 250.44 501 452.56 Q 499.56 476.09 481.94 490.19 Q 469.83 499.87 453.19 501 Q 250.81 501 48.44 501 Q 17.96 498.76 4.81 472.19 Q 0.54 463.55 0 452.44 Q 0 250.31 0 48.19 Q 3.19 13.44 35.81 2.06 Q 40.85 0.31 48.25 0.21 Z M 194.71 437.25 Q 198.32 436.52 201.95 436.71 Q 207.49 437.01 207.57 437.01 Q 270.65 437.25 299 437 Q 303.83 436.96 306.5 437.54 Q 309.27 443.7 312.76 449.47 Q 317.04 456.54 320.6 463.99 C 320.72865489122586 464.2649019331862 321.0094376499937 464.44039115741606 321.32 464.44 L 485.19 464.19 Q 485.69 464.19 485.32 463.85 Q 481.6 460.48 477.96 457.04 Q 440.06 421.26 403.45 384.19 Q 395.16 375.8 389.57 369.78 Q 367.67 346.19 341.69 314.06 Q 319.94 287.17 300.96 258.26 Q 288.93 239.94 279.17 220.32 Q 262.08 185.97 254.63 148.32 Q 253.57 142.97 252.13 137.72 Q 251.98 137.18 251.74 136.83 Q 250.83 135.51 250.51 137.35 Q 249.1 145.42 247.56 153.47 Q 245.88 162.28 243.83 169.39 Q 233.65 204.73 215.71 236.79 Q 211.39 244.51 205.13 253.75 Q 171.12 303.93 130.57 349.06 Q 114.94 366.45 106.06 375.56 Q 63.45 419.32 18.66 463.7 Q 17.92 464.44 18.96 464.43 L 181.13 464.25 C 181.55446752360223 464.25020775902055 181.92992661186884 463.9797157276887 182.06 463.58 Q 183.04 460.57 184.51 457.79 Q 189.87 447.65 194.71 437.25 Z" stroke-linecap="round" />
</g>
<g transform="matrix(1 0 0 1 321.36 369.67)" id="FDXO_PhY4VAXe6-entCal"  >
<path style="stroke: none; stroke-width: 1; stroke-dasharray: none; stroke-linecap: butt; stroke-dashoffset: 0; stroke-linejoin: miter; stroke-miterlimit: 4; fill: rgb(255,255,255); fill-rule: nonzero; opacity: 1;" vector-effect="non-scaling-stroke"  transform=" translate(-251.86, -300.17)" d="M 306.5 437.54 Q 315.66 437.22 324.81 432.31 Q 334.66 427.03 337.31 425.5 C 337.5554005736389 425.3599474334863 337.64778255238826 425.05200750432186 337.52 424.8 Q 334.13 418.27 330.44 413.06 Q 294.07 361.75 252.47 305.54 Q 251.72 304.54 250.64 303.53 C 250.54492211359258 303.44060725610365 250.41643631730767 303.39586534027177 250.28786788123338 303.407378931562 C 250.1592994451591 303.4188925228522 250.04331596720564 303.4855272095114 249.97 303.59 Q 227.86 334.59 205.87 365.42 Q 202.94 369.52 194.16 381.64 Q 179.19 402.31 164.49 424.23 C 164.3580381257714 424.4257942655516 164.31226052481765 424.66739674821287 164.36317596412258 424.89934486060207 C 164.41409140342753 425.13129297299133 164.55732649476954 425.33366350209866 164.76 425.46 Q 174.21 431.36 184.81 436.19 Q 187.75 437.52 194.71 437.25 Q 189.87 447.65 184.51 457.79 Q 183.04 460.57 182.06 463.58 C 181.92992661186884 463.9797157276887 181.55446752360223 464.25020775902055 181.13 464.25 L 18.96 464.43 Q 17.92 464.44 18.66 463.7 Q 63.45 419.32 106.06 375.56 Q 114.94 366.45 130.57 349.06 Q 171.12 303.93 205.13 253.75 Q 211.39 244.51 215.71 236.79 Q 233.65 204.73 243.83 169.39 Q 245.88 162.28 247.56 153.47 Q 249.1 145.42 250.51 137.35 Q 250.83 135.51 251.74 136.83 Q 251.98 137.18 252.13 137.72 Q 253.57 142.97 254.63 148.32 Q 262.08 185.97 279.17 220.32 Q 288.93 239.94 300.96 258.26 Q 319.94 287.17 341.69 314.06 Q 367.67 346.19 389.57 369.78 Q 395.16 375.8 403.45 384.19 Q 440.06 421.26 477.96 457.04 Q 481.6 460.48 485.32 463.85 Q 485.69 464.19 485.19 464.19 L 321.32 464.44 C 321.0094376499937 464.44039115741606 320.72865489122586 464.2649019331862 320.6 463.99 Q 317.04 456.54 312.76 449.47 Q 309.27 443.7 306.5 437.54 Z" stroke-linecap="round" />
</g>
<g transform="matrix(1 0 0 1 320.46 439.97)" id="u9ZVl1mnHnBsnzNZtRWt7"  >
<path style="stroke: none; stroke-width: 1; stroke-dasharray: none; stroke-linecap: butt; stroke-dashoffset: 0; stroke-linejoin: miter; stroke-miterlimit: 4; fill: rgb(0,0,0); fill-rule: nonzero; opacity: 1;" vector-effect="non-scaling-stroke"  transform=" translate(-250.96, -370.47)" d="M 306.5 437.54 Q 303.83 436.96 299 437 Q 270.65 437.25 207.57 437.01 Q 207.49 437.01 201.95 436.71 Q 198.32 436.52 194.71 437.25 Q 187.75 437.52 184.81 436.19 Q 174.21 431.36 164.76 425.46 C 164.55732649476954 425.33366350209866 164.41409140342753 425.13129297299133 164.36317596412258 424.89934486060207 C 164.31226052481765 424.66739674821287 164.3580381257714 424.4257942655516 164.49 424.23 Q 179.19 402.31 194.16 381.64 Q 202.94 369.52 205.87 365.42 Q 227.86 334.59 249.97 303.59 C 250.04331596720564 303.4855272095114 250.1592994451591 303.4188925228522 250.28786788123338 303.407378931562 C 250.41643631730767 303.39586534027177 250.54492211359258 303.44060725610365 250.64 303.53 Q 251.72 304.54 252.47 305.54 Q 294.07 361.75 330.44 413.06 Q 334.13 418.27 337.52 424.8 C 337.64778255238826 425.05200750432186 337.5554005736389 425.3599474334863 337.31 425.5 Q 334.66 427.03 324.81 432.31 Q 315.66 437.22 306.5 437.54 Z M 250.95 343.35 Q 233.55 366.06 217.38 389.15 Q 207.57 403.16 197.38 417.02 Q 197.02 417.51 197.63 417.5 L 303.66 417.25 Q 305.21 417.25 304.07 416.21 Q 303.14 415.36 302.3 414.21 Q 280.38 384.18 259.09 353.7 Q 255.35 348.34 251.22 343.35 C 251.18783327555323 343.3079702636819 251.13792633462276 343.28331989159886 251.08499999999998 343.28331989159886 C 251.03207366537723 343.28331989159886 250.98216672444676 343.3079702636819 250.95 343.35 Z" stroke-linecap="round" />
</g>
<g transform="matrix(1 0 0 1 320.51 449.89)" id="UHFrVODqyLUD_dJYRv3Sj"  >
<path style="stroke: none; stroke-width: 1; stroke-dasharray: none; stroke-linecap: butt; stroke-dashoffset: 0; stroke-linejoin: miter; stroke-miterlimit: 4; fill: rgb(255,189,0); fill-rule: nonzero; opacity: 1;" vector-effect="non-scaling-stroke"  transform=" translate(-251.01, -380.39)" d="M 250.95 343.35 C 250.98216672444676 343.3079702636819 251.03207366537723 343.28331989159886 251.08499999999998 343.28331989159886 C 251.13792633462276 343.28331989159886 251.18783327555323 343.3079702636819 251.22 343.35 Q 255.35 348.34 259.09 353.7 Q 280.38 384.18 302.3 414.21 Q 303.14 415.36 304.07 416.21 Q 305.21 417.25 303.66 417.25 L 197.63 417.5 Q 197.02 417.51 197.38 417.02 Q 207.57 403.16 217.38 389.15 Q 233.55 366.06 250.95 343.35 Z" stroke-linecap="round" />
</g>
</svg>