<?xml version="1.0" encoding="UTF-8" standalone="no" ?>
<!DOCTYPE svg PUBLIC "-//W3C//DTD SVG 1.1//EN" "http://www.w3.org/Graphics/SVG/1.1/DTD/svg11.dtd">
<svg xmlns="http://www.w3.org/2000/svg" xmlns:xlink="http://www.w3.org/1999/xlink" version="1.1" width="640" height="640" viewBox="0 0 640 640" xml:space="preserve">
<desc>Created with Fabric.js 4.6.0</desc>
<defs>
</defs>
<g transform="matrix(1 0 0 1 319.88 69.88)" id="gjJQDJ4WX8HyXtyUrscay"  >
<path style="stroke: none; stroke-width: 1; stroke-dasharray: none; stroke-linecap: butt; stroke-dashoffset: 0; stroke-linejoin: miter; stroke-miterlimit: 4; fill: rgb(251,251,250); fill-opacity: 0.98; fill-rule: nonzero; opacity: 1;" vector-effect="non-scaling-stroke"  transform=" translate(-197.83, -0.13)" d="M 0 0.26 L 0 0 L 395.66 0 L 395.66 0.26 z" stroke-linecap="round" />
</g>
<g transform="matrix(1 0 0 1 320 320)" id="RPpAishUq91DEhzqAsOnM"  >
<path style="stroke: none; stroke-width: 1; stroke-dasharray: none; stroke-linecap: butt; stroke-dashoffset: 0; stroke-linejoin: miter; stroke-miterlimit: 4; fill: rgb(0,0,0); fill-rule: nonzero; opacity: 1;" vector-effect="non-scaling-stroke"  transform=" translate(-250.5, -250.5)" d="M 48.31 0 C 183.14333 0 317.97667 0 452.81 0 C 473.81 1.75333 488.52 11.85667 496.94 30.31 C 499.19333 35.263329999999996 500.54667 41.34667 501 48.56 C 501 183.22667 501 317.89333 501 452.56 C 500.5 462.06667 497.89667 470.44333 493.19 477.69 C 483.93667 491.91667 470.52 499.68667 452.94 501 C 317.85333 501 182.76999999999998 501 47.69 501 C 40.24333 500.48667 33.61667 498.71667 27.81 495.69 C 10.656669999999998 486.75 1.3866699999999987 472.33333 0 452.44 C 0 317.77333 0 183.10667 0 48.44 C 0.97333 32.599999999999994 7.41 19.973329999999997 19.31 10.559999999999995 C 27.45 4.126669999999995 37.11667 0.6066699999999958 48.31 -5.329070518200751e-15 z M 448.08 0.25 L 52.68000000000001 0.25 C 52.645520000000005 0.25 52.612460000000006 0.2637 52.588080000000005 0.28808 C 52.563700000000004 0.31246 52.550000000000004 0.34553 52.550000000000004 0.38 C 52.550000000000004 0.41448 52.563700000000004 0.44754 52.588080000000005 0.47192 C 52.612460000000006 0.4963 52.64553000000001 0.51 52.68000000000001 0.51 L 448.08 0.51 C 448.1518 0.51 448.21 0.4518 448.21 0.38 C 448.21 0.30820000000000003 448.1518 0.25 448.08 0.25 z M 464.06 33.69093 C 468.6545 38.515390000000004 471.92924 43.94318 473.88422 49.97428 C 473.88441 49.97455 473.88460000000003 49.97482 473.88478000000003 49.97509 C 471.92986 43.943290000000005 468.65493000000004 38.51493 464.05999 33.69 C 458.52860000000004 27.876479999999997 452.04749000000004 23.92814 444.61667 21.844969999999996 C 444.61754 21.845519999999997 444.6184 21.846079999999997 444.61927 21.846629999999998 C 452.04900999999995 23.929989999999997 458.52925 27.878089999999997 464.05999999999995 33.690929999999994 z" stroke-linecap="round" />
</g>
<g transform="matrix(1 0 0 1 320.79 321.52)" id="23bb62DCIFFpEJpMNCOVO"  >
<path style="stroke: none; stroke-width: 1; stroke-dasharray: none; stroke-linecap: butt; stroke-dashoffset: 0; stroke-linejoin: miter; stroke-miterlimit: 4; fill: rgb(255,0,0); fill-rule: nonzero; opacity: 1;" vector-effect="non-scaling-stroke"  transform=" translate(-251.29, -252.02)" d="M 219.56 40.4 Q 325.71 40.01 431.87 40.47 Q 439.11 40.51 442.95 41.88 Q 450.53 44.6 455.44 51.31 Q 460.21 57.85 461.41 65.67 Q 461.76 67.93 461.74 80.86 Q 461.65 136.56 462 240.75 Q 462.27 320.53 461.5 436.25 Q 461.49 437.25 460.47 441.49 Q 456.56 457.69 441.9 462.48 Q 438 463.75 431.45 463.75 Q 253.19 463.65 74.94 463.93 Q 63.92 463.94 59.35 462.43 Q 48.4 458.8 43.56 447.19 Q 42.09 443.66 41.43 439.29 Q 41 436.47 41.01 431.18 Q 41.04 409.01 40.75 367 Q 40.5 330.24 40.92 274.01 Q 41 263.84 40.94 254 Q 40.22 130.39 41 67.25 Q 41.07 61.86 44.83 55.12 Q 51.02 44.04 62.03 41.32 Q 65.26 40.53 81.54 40.45 Q 140.55 40.16 199.56 40.4 Q 209.8 40.44 219.56 40.4 Z M 255.81 53.74 Q 242.47 51.93 231.44 58.19 Q 217.92 65.86 213.77 80.14 Q 211.48 88.02 212.49 96.01 Q 213.54 104.42 218.09 111.36 Q 223.42 119.51 233.1 124.14 Q 246.49 130.54 261.04 126.83 Q 271.29 124.22 278.48 117.54 Q 289.01 107.75 289.33 92.94 Q 289.56 82.63 285.16 73.6 Q 276.89 56.61 255.81 53.74 Z M 186.81 68.44 Q 175.71 59.3 164.18 62.8 Q 154.96 65.59 148.63 74.72 Q 142.67 83.31 142.52 94.1 Q 142.39 103.09 145.97 110.05 Q 150.11 118.06 158.44 121.77 Q 165.35 124.85 172.9 124.18 Q 180.78 123.47 187.15 118.75 Q 192.13 115.06 194.59 110.12 Q 197.08 105.14 197.5 98.75 Q 198.45 84.51 191.57 73.64 Q 189.86 70.95 186.81 68.44 Z M 311.44 72.19 Q 304.37 80.97 303.77 94.24 Q 303.37 103.18 306.81 109.69 Q 313 121.39 324.79 123.66 Q 334.97 125.61 344.26 121.06 Q 356.7 114.96 358.38 98.74 Q 359.22 90.63 357.5 83.75 Q 353.63 68.26 338.27 62.96 Q 332.33 60.91 326.26 62.54 Q 317.26 64.95 311.44 72.19 Z M 427.33 384.2 Q 432.21 385.81 437.19 383.19 Q 443.08 380.08 445.04 374.11 Q 446 371.2 446 362.79 Q 446 260.52 446.12 158.25 Q 446.12 155.11 445.81 151.99 Q 444.86 142.26 435.9 138.64 Q 432.11 137.11 428.75 138 Q 422.08 139.78 419 145.17 Q 417.03 148.6 416.6 156.2 Q 416.27 162.09 416.27 168 Q 416.25 263.12 416.18 358.25 Q 416.18 360.67 416.5 368 Q 416.77 374.2 419.99 378.65 Q 422.96 382.76 427.33 384.2 Z M 78.81 140.69 Q 72.23 135.81 65.06 139.31 Q 56.52 143.49 56.11 153.49 Q 56.05 155 56.05 156.5 Q 56 259.73 56 362.95 Q 56 363.03 55.94 366.04 Q 55.86 370.48 56.75 373.75 Q 58.4 379.83 63.37 382.66 Q 68.04 385.33 73.47 384.17 Q 80.68 382.62 83.81 374.77 Q 85.74 369.95 85.75 362.25 Q 85.89 258.5 85.44 154.75 Q 85.4 145.56 78.81 140.69 Z M 255.06 144.7 Q 229.19 143.15 210.19 159.69 Q 194.11 173.68 190.75 195.25 Q 189.93 200.54 190.3 212.94 C 190.3054278965255 213.21398151792485 190.53064422885245 213.43478184373558 190.81 213.44 L 225.11 213.74 C 225.63928769429032 213.74619540362528 226.11724962309106 214.067448503311 226.33 214.56 Q 228.52 219.6 231.83 223.69 Q 235.06 227.66 239.01 229.87 Q 243.44 232.35 248.25 232.75 Q 262.7 233.94 270.92 222.58 Q 271.6 221.63 273.27 218.68 Q 274.46 216.57 275.7 214.82 C 276.17764487255886 214.15383123875563 276.9358151412289 213.75616349979634 277.74 213.75 L 311.07 213.56 C 311.3458689148505 213.56045946255668 311.57408484622704 213.34540983491337 311.59 213.07 Q 312.48 199.16 309.75 188.25 Q 306.78 176.38 298.19 166.31 Q 281.07 146.26 255.06 144.7 Z M 130.4897 216.9005 C 144.61388199537856 221.38097553468114 159.7351956946796 213.43944732790823 164.2641 199.1626 C 168.7929778461046 184.88576081353938 161.0144669415015 169.67997142353107 146.8903 165.1995 C 132.76611800462143 160.71902446531885 117.64480430532043 168.66055267209177 113.1159 182.9374 C 108.58702215389539 197.21423918646062 116.36553305849851 212.42002857646892 130.4897 216.9005 Z M 352.1539 215.7755 C 365.699742484345 221.86321499643404 381.6397447508904 215.76412590628803 387.7569 202.1528 C 393.8740604165795 188.5414755699496 387.8519334005265 172.57223708252252 374.3061 166.4845 C 360.76025751565504 160.39678500356592 344.8202552491096 166.49587409371196 338.7031 180.1072 C 332.58593958342055 193.71852443005045 338.60806659947355 209.6877629174775 352.1539 215.7755 Z M 255.31 252.94 Q 223.37 251.64 202.98 272.91 Q 195.89 280.32 191.47 289.16 Q 184.48 303.13 184.56 319.06 Q 184.8 366.53 184.84 414 Q 184.85 424.09 190.19 431.56 Q 195.48 438.98 203.77 440.64 Q 211.71 442.23 218.8 438.4 Q 225.23 434.94 228.09 428.01 Q 229.77 423.95 229.95 416.25 Q 230.1 410.25 230.01 404.24 Q 229.75 386.29 229.75 386.25 Q 229.75 355.38 229.75 324.5 Q 229.75 314.63 236.48 308.27 Q 240.84 304.16 246.4 302.7 Q 252.43 301.11 258.25 303.25 Q 271.98 308.3 271.94 324 Q 271.82 370.24 272.2 416.47 Q 272.26 423.7 273.68 427.33 Q 276.96 435.75 286.01 439.47 Q 290.37 441.27 294.87 441.11 Q 298.93 440.96 303.3 438.74 Q 317.77 431.37 317.75 414 Q 317.67 342.87 318 328.75 Q 318.31 315.43 316.44 304.81 Q 314.36 293.07 307.03 282.21 Q 294.42 263.52 273.08 256.13 Q 265.01 253.33 255.31 252.94 Z M 352.53 439.74 Q 359.76 442.64 367.81 440.31 Q 377.78 437.44 382.05 428.56 Q 383.81 424.89 384.26 419.16 Q 384.64 414.29 384.51 409.4 Q 384.25 399.68 384.25 399.59 Q 384.25 349.17 384.21 298.75 Q 384.2 288.22 376.94 282.31 Q 371.67 278.03 364.83 277.37 Q 358.67 276.78 352.53 279.61 Q 342.1 284.42 338.56 295.23 Q 337.02 299.94 336.93 310.46 Q 336.52 359.48 337 415.5 Q 337.07 424.08 341.35 430.55 Q 345.58 436.95 352.53 439.74 Z M 125.48 436.01 Q 132.82 442.06 141.44 441.44 Q 151.4 440.71 157.87 433.7 Q 161.8 429.44 163.6 423.4 Q 165.25 417.88 165.25 411.5 Q 165.25 362.13 165.48 312.75 Q 165.52 304.16 164.75 299.75 Q 162.1 284.49 149.98 279.63 Q 140.1 275.67 130.6 279.97 Q 119.11 285.16 117.5 300.25 Q 117.12 303.83 117.32 313.75 Q 117.49 322.15 117.47 327.25 Q 117.27 370.81 117.47 414.37 Q 117.51 422.73 118.57 426.02 Q 120.45 431.86 125.48 436.01 Z" stroke-linecap="round" />
</g>
<g transform="matrix(1 0 0 1 320.13 160.52)" id="4HkK_FhOL5-xnnXyHMXeS"  >
<path style="stroke: none; stroke-width: 1; stroke-dasharray: none; stroke-linecap: butt; stroke-dashoffset: 0; stroke-linejoin: miter; stroke-miterlimit: 4; fill: rgb(0,0,0); fill-rule: nonzero; opacity: 1;" vector-effect="non-scaling-stroke"  transform=" translate(-250.63, -91.02)" d="M 255.81 53.74 Q 276.89 56.61 285.16 73.6 Q 289.56 82.63 289.33 92.94 Q 289.01 107.75 278.48 117.54 Q 271.29 124.22 261.04 126.83 Q 246.49 130.54 233.1 124.14 Q 223.42 119.51 218.09 111.36 Q 213.54 104.42 212.49 96.01 Q 211.48 88.02 213.77 80.14 Q 217.92 65.86 231.44 58.19 Q 242.47 51.93 255.81 53.74 Z" stroke-linecap="round" />
</g>
<g transform="matrix(1 0 0 1 239.71 162.09)" id="8S63_WveV2kjGuXiJQ6zJ"  >
<path style="stroke: none; stroke-width: 1; stroke-dasharray: none; stroke-linecap: butt; stroke-dashoffset: 0; stroke-linejoin: miter; stroke-miterlimit: 4; fill: rgb(0,0,0); fill-rule: nonzero; opacity: 1;" vector-effect="non-scaling-stroke"  transform=" translate(-170.21, -92.59)" d="M 186.81 68.44 Q 189.86 70.95 191.57 73.64 Q 198.45 84.51 197.5 98.75 Q 197.08 105.14 194.59 110.12 Q 192.13 115.06 187.15 118.75 Q 180.78 123.47 172.9 124.18 Q 165.35 124.85 158.44 121.77 Q 150.11 118.06 145.97 110.05 Q 142.39 103.09 142.52 94.1 Q 142.67 83.31 148.63 74.72 Q 154.96 65.59 164.18 62.8 Q 175.71 59.3 186.81 68.44 Z" stroke-linecap="round" />
</g>
<g transform="matrix(1 0 0 1 400.76 162.63)" id="DPy80vUCCPABzI-UKP3rh"  >
<path style="stroke: none; stroke-width: 1; stroke-dasharray: none; stroke-linecap: butt; stroke-dashoffset: 0; stroke-linejoin: miter; stroke-miterlimit: 4; fill: rgb(0,0,0); fill-rule: nonzero; opacity: 1;" vector-effect="non-scaling-stroke"  transform=" translate(-331.26, -93.13)" d="M 311.44 72.19 Q 317.26 64.95 326.26 62.54 Q 332.33 60.91 338.27 62.96 Q 353.63 68.26 357.5 83.75 Q 359.22 90.63 358.38 98.74 Q 356.7 114.96 344.26 121.06 Q 334.97 125.61 324.79 123.66 Q 313 121.39 306.81 109.69 Q 303.37 103.18 303.77 94.24 Q 304.37 80.97 311.44 72.19 Z" stroke-linecap="round" />
</g>
<g transform="matrix(1 0 0 1 500.65 330.85)" id="A5XA71lDXTIYcltxeS76C"  >
<path style="stroke: none; stroke-width: 1; stroke-dasharray: none; stroke-linecap: butt; stroke-dashoffset: 0; stroke-linejoin: miter; stroke-miterlimit: 4; fill: rgb(0,0,0); fill-rule: nonzero; opacity: 1;" vector-effect="non-scaling-stroke"  transform=" translate(-431.15, -261.35)" d="M 419.99 378.65 Q 416.77 374.2 416.5 368 Q 416.18 360.67 416.18 358.25 Q 416.25 263.12 416.27 168 Q 416.27 162.09 416.6 156.2 Q 417.03 148.6 419 145.17 Q 422.08 139.78 428.75 138 Q 432.11 137.11 435.9 138.64 Q 444.86 142.26 445.81 151.99 Q 446.12 155.11 446.12 158.25 Q 446 260.52 446 362.79 Q 446 371.2 445.04 374.11 Q 443.08 380.08 437.19 383.19 Q 432.21 385.81 427.33 384.2 Q 422.96 382.76 419.99 378.65 Z" stroke-linecap="round" />
</g>
<g transform="matrix(1 0 0 1 140.37 330.37)" id="YI-e5PFZwBtEypJE2j3Zm"  >
<path style="stroke: none; stroke-width: 1; stroke-dasharray: none; stroke-linecap: butt; stroke-dashoffset: 0; stroke-linejoin: miter; stroke-miterlimit: 4; fill: rgb(0,0,0); fill-rule: nonzero; opacity: 1;" vector-effect="non-scaling-stroke"  transform=" translate(-70.87, -260.87)" d="M 78.81 140.69 Q 85.4 145.56 85.44 154.75 Q 85.89 258.5 85.75 362.25 Q 85.74 369.95 83.81 374.77 Q 80.68 382.62 73.47 384.17 Q 68.04 385.33 63.37 382.66 Q 58.4 379.83 56.75 373.75 Q 55.86 370.48 55.94 366.04 Q 56 363.03 56 362.95 Q 56 259.73 56.05 156.5 Q 56.05 155 56.11 153.49 Q 56.52 143.49 65.06 139.31 Q 72.23 135.81 78.81 140.69 Z" stroke-linecap="round" />
</g>
<g transform="matrix(1 0 0 1 320.59 258.16)" id="_PAna2Bb8K_IkWqpTf0u7"  >
<path style="stroke: none; stroke-width: 1; stroke-dasharray: none; stroke-linecap: butt; stroke-dashoffset: 0; stroke-linejoin: miter; stroke-miterlimit: 4; fill: rgb(0,0,0); fill-rule: nonzero; opacity: 1;" vector-effect="non-scaling-stroke"  transform=" translate(-251.09, -188.66)" d="M 255.06 144.7 Q 281.07 146.26 298.19 166.31 Q 306.78 176.38 309.75 188.25 Q 312.48 199.16 311.59 213.07 C 311.57408484622704 213.34540983491337 311.3458689148505 213.56045946255668 311.07 213.56 L 277.74 213.75 C 276.9358151412289 213.75616349979634 276.17764487255886 214.15383123875563 275.7 214.82 Q 274.46 216.57 273.27 218.68 Q 271.6 221.63 270.92 222.58 Q 262.7 233.94 248.25 232.75 Q 243.44 232.35 239.01 229.87 Q 235.06 227.66 231.83 223.69 Q 228.52 219.6 226.33 214.56 C 226.11724962309106 214.067448503311 225.63928769429032 213.74619540362528 225.11 213.74 L 190.81 213.44 C 190.53064422885245 213.43478184373558 190.3054278965255 213.21398151792485 190.3 212.94 Q 189.93 200.54 190.75 195.25 Q 194.11 173.68 210.19 159.69 Q 229.19 143.15 255.06 144.7 Z" stroke-linecap="round" />
</g>
<g transform="matrix(1 0 0 1 208.19 260.55)" id="Fg5n6kB4HitezjfefFmmE"  >
<path style="stroke: none; stroke-width: 1; stroke-dasharray: none; stroke-linecap: butt; stroke-dashoffset: 0; stroke-linejoin: miter; stroke-miterlimit: 4; fill: rgb(0,0,0); fill-rule: nonzero; opacity: 1;" vector-effect="non-scaling-stroke"  transform=" translate(-27.12, -26.83)" d="M 0 26.83 C 0 12.012199999999998 12.14204 0 27.12 0 C 42.09796 0 54.24 12.0122 54.24 26.83 C 54.24 41.6478 42.09796 53.66 27.12 53.66 C 12.142040000000001 53.66 0 41.6478 0 26.83 z" stroke-linecap="round" />
</g>
<g transform="matrix(1 0 0 1 432.73 260.63)" id="s9Kx9qQi30nBNXDSJQBfY"  >
<path style="stroke: none; stroke-width: 1; stroke-dasharray: none; stroke-linecap: butt; stroke-dashoffset: 0; stroke-linejoin: miter; stroke-miterlimit: 4; fill: rgb(0,0,0); fill-rule: nonzero; opacity: 1;" vector-effect="non-scaling-stroke"  transform=" translate(-27.02, -26.89)" d="M 0 26.89 C 0 12.039060000000001 12.09727 0 27.02 0 C 41.94273 0 54.04 12.03906 54.04 26.89 C 54.04 41.74094 41.94273 53.78 27.02 53.78 C 12.09727 53.78 0 41.74094 0 26.89 z" stroke-linecap="round" />
</g>
<g transform="matrix(1 0 0 1 320.85 416.56)" id="tFba-JGB2YfBRfcLK2VVi"  >
<path style="stroke: none; stroke-width: 1; stroke-dasharray: none; stroke-linecap: butt; stroke-dashoffset: 0; stroke-linejoin: miter; stroke-miterlimit: 4; fill: rgb(0,0,0); fill-rule: nonzero; opacity: 1;" vector-effect="non-scaling-stroke"  transform=" translate(-251.35, -347.06)" d="M 255.31 252.94 Q 265.01 253.33 273.08 256.13 Q 294.42 263.52 307.03 282.21 Q 314.36 293.07 316.44 304.81 Q 318.31 315.43 318 328.75 Q 317.67 342.87 317.75 414 Q 317.77 431.37 303.3 438.74 Q 298.93 440.96 294.87 441.11 Q 290.37 441.27 286.01 439.47 Q 276.96 435.75 273.68 427.33 Q 272.26 423.7 272.2 416.47 Q 271.82 370.24 271.94 324 Q 271.98 308.3 258.25 303.25 Q 252.43 301.11 246.4 302.7 Q 240.84 304.16 236.48 308.27 Q 229.75 314.63 229.75 324.5 Q 229.75 355.38 229.75 386.25 Q 229.75 386.29 230.01 404.24 Q 230.1 410.25 229.95 416.25 Q 229.77 423.95 228.09 428.01 Q 225.23 434.94 218.8 438.4 Q 211.71 442.23 203.77 440.64 Q 195.48 438.98 190.19 431.56 Q 184.85 424.09 184.84 414 Q 184.8 366.53 184.56 319.06 Q 184.48 303.13 191.47 289.16 Q 195.89 280.32 202.98 272.91 Q 223.37 251.64 255.31 252.94 Z" stroke-linecap="round" />
</g>
<g transform="matrix(1 0 0 1 430.11 429.03)" id="dScQjJJunYQdrRK2sNnpG"  >
<path style="stroke: none; stroke-width: 1; stroke-dasharray: none; stroke-linecap: butt; stroke-dashoffset: 0; stroke-linejoin: miter; stroke-miterlimit: 4; fill: rgb(0,0,0); fill-rule: nonzero; opacity: 1;" vector-effect="non-scaling-stroke"  transform=" translate(-360.61, -359.53)" d="M 341.35 430.55 Q 337.07 424.08 337 415.5 Q 336.52 359.48 336.93 310.46 Q 337.02 299.94 338.56 295.23 Q 342.1 284.42 352.53 279.61 Q 358.67 276.78 364.83 277.37 Q 371.67 278.03 376.94 282.31 Q 384.2 288.22 384.21 298.75 Q 384.25 349.17 384.25 399.59 Q 384.25 399.68 384.51 409.4 Q 384.64 414.29 384.26 419.16 Q 383.81 424.89 382.05 428.56 Q 377.78 437.44 367.81 440.31 Q 359.76 442.64 352.53 439.74 Q 345.58 436.95 341.35 430.55 Z" stroke-linecap="round" />
</g>
<g transform="matrix(1 0 0 1 210.84 428.7)" id="BFk_brI7Wmb1CuTicTjAq"  >
<path style="stroke: none; stroke-width: 1; stroke-dasharray: none; stroke-linecap: butt; stroke-dashoffset: 0; stroke-linejoin: miter; stroke-miterlimit: 4; fill: rgb(0,0,0); fill-rule: nonzero; opacity: 1;" vector-effect="non-scaling-stroke"  transform=" translate(-141.34, -359.2)" d="M 125.48 436.01 Q 120.45 431.86 118.57 426.02 Q 117.51 422.73 117.47 414.37 Q 117.27 370.81 117.47 327.25 Q 117.49 322.15 117.32 313.75 Q 117.12 303.83 117.5 300.25 Q 119.11 285.16 130.6 279.97 Q 140.1 275.67 149.98 279.63 Q 162.1 284.49 164.75 299.75 Q 165.52 304.16 165.48 312.75 Q 165.25 362.13 165.25 411.5 Q 165.25 417.88 163.6 423.4 Q 161.8 429.44 157.87 433.7 Q 151.4 440.71 141.44 441.44 Q 132.82 442.06 125.48 436.01 Z" stroke-linecap="round" />
</g>
</svg>