<?xml version="1.0" encoding="UTF-8" standalone="no" ?>
<!DOCTYPE svg PUBLIC "-//W3C//DTD SVG 1.1//EN" "http://www.w3.org/Graphics/SVG/1.1/DTD/svg11.dtd">
<svg xmlns="http://www.w3.org/2000/svg" xmlns:xlink="http://www.w3.org/1999/xlink" version="1.1" width="640" height="640" viewBox="0 0 640 640" xml:space="preserve">
<desc>Created with Fabric.js 4.6.0</desc>
<defs>
</defs>
<g transform="matrix(1 0 0 1 123.28 135.43)" id="__L28Lyqab5dfTHMDKP_n"  >
<path style="stroke: none; stroke-width: 1; stroke-dasharray: none; stroke-linecap: butt; stroke-dashoffset: 0; stroke-linejoin: miter; stroke-miterlimit: 4; fill: rgb(255,255,255); fill-rule: nonzero; opacity: 1;" vector-effect="non-scaling-stroke"  transform=" translate(-53.78, -65.93)" d="M 48.31 0 Q 77.94 0 107.56 0 Q 107.53 0.43 107.22 0.72 Q 75.23 31.58 47.81 66.56 Q 38.97 77.84 7.94 121.94 Q 5.78 125 0.97 131.12 Q 0.91 131.19 0.74 131.54 Q 0.53 131.95 0 131.69 Q 0 89.94 0 48.19 Q 0.76 35.52 6.31 25.81 Q 19.94 2 48.31 0 Z" stroke-linecap="round" />
</g>
<g transform="matrix(1 0 0 1 476.35 112.66)" id="P9BIk-w7RT7qxF-eV2gSu"  >
<path style="stroke: none; stroke-width: 1; stroke-dasharray: none; stroke-linecap: butt; stroke-dashoffset: 0; stroke-linejoin: miter; stroke-miterlimit: 4; fill: rgb(255,255,255); fill-rule: nonzero; opacity: 1;" vector-effect="non-scaling-stroke"  transform=" translate(-406.85, -43.16)" d="M 312.81 0 Q 382.94 0 453.06 0 Q 467.47 0.93 478.19 8.06 Q 499.18 22.03 501 48.31 Q 501 67.31 501 86.31 Q 480.36 82.19 463.81 73.69 Q 447.11 65.11 423.69 50.31 Q 404.59 38.25 380.95 28.53 Q 358.28 19.21 335.43 10.32 Q 324.19 5.95 313.36 0.65 Q 313.31 0.62 313 0.54 Q 312.65 0.44 312.81 0 Z M 450.21 0.38 C 450.21 0.3082029825219986 450.151797017478 0.2500000000000025 450.08 0.25 L 315.68 0.25 C 315.608202982522 0.25000000000000255 315.55 0.3082029825219987 315.55 0.38 L 315.55 0.38 C 315.55 0.45179701747800133 315.608202982522 0.5099999999999975 315.68 0.51 L 450.08 0.51 C 450.151797017478 0.5099999999999975 450.21 0.45179701747800133 450.21 0.38 L 450.21 0.38 Z" stroke-linecap="round" />
</g>
<g transform="matrix(1 0 0 1 452.38 69.88)" id="RqOjgGrvG20BhhJ0c2QS-"  >
<path style="stroke: none; stroke-width: 1; stroke-dasharray: none; stroke-linecap: butt; stroke-dashoffset: 0; stroke-linejoin: miter; stroke-miterlimit: 4; fill: rgb(255,255,255); fill-rule: nonzero; opacity: 1;" vector-effect="non-scaling-stroke"  transform=" translate(-67.33, -0.13)" d="M 0 0.26 L 0 0 L 134.66 0 L 134.66 0.26 z" stroke-linecap="round" />
</g>
<g transform="matrix(1 0 0 1 317.51 214.06)" id="C9QMG8nPuSXh55EMpEXE4"  >
<path style="stroke: none; stroke-width: 1; stroke-dasharray: none; stroke-linecap: butt; stroke-dashoffset: 0; stroke-linejoin: miter; stroke-miterlimit: 4; fill: rgb(255,255,255); fill-rule: nonzero; opacity: 1;" vector-effect="non-scaling-stroke"  transform=" translate(-248.01, -144.56)" d="M 0 169.69 Q 0 168.94 0 168.19 Q 18.61 154.66 36.69 140.44 Q 39.24 138.43 44.6 133.1 Q 50.15 127.59 56.18 122.63 Q 61.77 118.03 68.82 113.52 Q 94.31 97.21 124.75 85.75 Q 164.2 70.9 206.25 67.52 Q 236.65 65.07 267.02 67.79 Q 323.39 72.83 377.81 94.69 Q 401.5 104.2 420.22 116.76 Q 455.66 140.55 476.48 177.85 Q 488.4 199.22 495.81 222.56 Q 496.14 223.59 495.48 223.07 Q 495.32 222.96 495.21 222.75 Q 490.68 214.15 488.94 211.81 Q 466.95 182.41 437.3 161.1 Q 430.03 155.88 420.78 149.82 Q 387.36 127.9 349.25 115.26 Q 308.73 101.84 266.32 97.92 Q 260.11 97.35 249.67 96.96 Q 244.11 96.76 238.55 96.51 Q 231.93 96.21 227.43 96.22 Q 165.85 96.38 107.52 116.2 Q 72.61 128.06 41.06 145.31 Q 21.71 155.9 1.69 169.07 Q 1.66 169.09 1.05 169.69 Q 0.62 170.11 0 169.69 Z" stroke-linecap="round" />
</g>
<g transform="matrix(1 0 0 1 320 375.22)" id="rx1sfZsxRE-4mcthawNRo"  >
<path style="stroke: none; stroke-width: 1; stroke-dasharray: none; stroke-linecap: butt; stroke-dashoffset: 0; stroke-linejoin: miter; stroke-miterlimit: 4; fill: rgb(255,255,255); fill-rule: nonzero; opacity: 1;" vector-effect="non-scaling-stroke"  transform=" translate(-250.5, -305.72)" d="M 501 255.81 Q 501 349.81 501 443.81 Q 465.97 433.1 445.06 403.94 Q 433.27 387.49 430.75 366.5 Q 430.27 362.53 430.49 347 Q 430.5 346.5 430.14 346.86 Q 396.99 380.09 354.59 400.37 Q 338.94 407.85 333.44 410.94 Q 322.59 417.02 314.69 424.19 Q 309.17 429.2 301.88 436.7 Q 292.14 446.73 289.12 449.27 Q 266.22 468.51 235.25 468.75 Q 196.98 469.04 158.77 458.94 Q 118.8 448.36 82.05 429.71 Q 72.03 424.62 64.4 420.29 Q 28.24 399.76 0 368.94 Q 0 333.94 0 298.94 Q 1.79 299.59 3.19 301.31 Q 18.96 320.67 37.36 338.75 Q 44.96 346.22 52.08 352.29 Q 84.48 379.9 121.56 397.19 Q 155.02 412.79 191.67 417.41 Q 210.53 419.79 237 419.75 Q 259.83 419.72 278.94 417.12 Q 289.43 415.7 298.65 413.74 Q 317.87 409.66 336.44 401.69 Q 406.38 371.65 454.56 313.31 Q 466.8 298.49 477.94 278.77 Q 479.97 275.19 481.66 271.45 Q 483.35 267.71 484.95 263.92 Q 485.54 262.5 484.14 263.14 Q 465.35 271.79 447.01 281.78 Q 427.88 292.2 412.81 303.81 Q 381.37 328.06 357.83 344.53 Q 337.56 358.72 317.25 368.25 Q 288.3 381.84 255.96 385.21 Q 246.36 386.21 236 386.12 Q 187.57 385.7 143.14 365.77 Q 111.93 351.78 81.86 335.45 Q 62.96 325.19 49.44 320.06 Q 21.52 309.48 0 294.94 Q 0 293.31 0 291.69 Q 0.31 295.5 0.32 293.5 Q 0.51 264.12 0.5 234.75 Q 0.5 230.33 0.21 228.25 Q 25.84 207.79 50.69 190.94 Q 65.74 180.73 82.73 172.51 Q 90.97 168.52 101.16 164.74 Q 135.03 152.16 170.44 144.67 Q 170.93 144.56 170.62 144.96 Q 158.89 159.77 157 179 Q 154.5 204.44 166.5 226.5 Q 179.92 251.18 205.1 263.61 Q 232.34 277.07 261.2 266.96 Q 295.81 254.83 312.56 221.81 Q 320.93 205.33 321.25 187.5 Q 321.7 162.56 310.07 142.99 Q 309.81 142.56 310.3 142.66 Q 332.85 147.08 350.69 154.31 Q 390.44 170.43 425.27 195.47 Q 444.54 209.31 461 223.75 Q 473.67 234.86 480.23 240.53 Q 490.02 248.98 501 255.81 Z" stroke-linecap="round" />
</g>
<g transform="matrix(1 0 0 1 320 205.14)" id="lH3qQTo8rpgo42KbqynMu"  >
<path style="stroke: none; stroke-width: 1; stroke-dasharray: none; stroke-linecap: butt; stroke-dashoffset: 0; stroke-linejoin: miter; stroke-miterlimit: 4; fill: rgb(55,45,151); fill-rule: nonzero; opacity: 1;" vector-effect="non-scaling-stroke"  transform=" translate(-250.5, -135.65)" d="M 107.56 0 C 175.98000000000002 0 244.39667 0 312.81 0 C 312.70333 0.29333 312.76667 0.47333 313 0.54 C 313.20667 0.59333 313.32667 0.63 313.36 0.65 C 320.58000000000004 4.18333 327.93667 7.40667 335.43 10.32 C 350.66333000000003 16.24667 365.83667 22.316670000000002 380.95 28.53 C 396.71 35.010000000000005 410.95667 42.27 423.69 50.31 C 439.30333 60.17667 452.67667 67.97 463.81 73.69 C 474.84333 79.35667 487.24 83.56333 501 86.31 C 501 142.81 501 199.31 501 255.81 C 493.68 251.25667 486.75667 246.16333 480.23 240.53 C 475.85667 236.75 469.44667000000004 231.15667 461 223.75 C 450.02667 214.12333 438.11667 204.69667 425.27 195.47 C 402.04999999999995 178.77667 377.19 165.05667 350.69 154.31 C 338.79667 149.49 325.33333 145.60667 310.3 142.66 C 309.97333000000003 142.59333 309.89667000000003 142.70333 310.07 142.99 C 317.82333 156.03667000000002 321.55 170.87333 321.25 187.5 C 321.03667 199.38667 318.14 210.82333 312.56 221.81 C 301.39333 243.82333 284.27333 258.87333 261.2 266.96 C 241.95999999999998 273.7 223.26 272.58333 205.1 263.60999999999996 C 188.31333 255.32332999999994 175.44666999999998 242.95332999999997 166.5 226.49999999999994 C 158.5 211.79332999999994 155.33333 195.95999999999995 157 178.99999999999994 C 158.26 166.17999999999995 162.8 154.83332999999993 170.62 144.95999999999995 C 170.82667 144.69332999999995 170.76667 144.59666999999996 170.44 144.66999999999996 C 146.83333 149.66332999999997 123.74 156.35332999999997 101.16 164.73999999999995 C 94.36667 167.25999999999996 88.22333 169.84999999999997 82.72999999999999 172.50999999999996 C 71.40332999999998 177.98999999999995 60.72332999999999 184.13332999999997 50.68999999999999 190.93999999999997 C 34.123329999999996 202.17332999999996 17.29666999999999 214.60999999999996 0.20999999999999375 228.24999999999997 C 0.13666999999999374 228.22999999999996 0.06666999999999373 228.20999999999998 -6.2450045135165055e-15 228.18999999999997 C -6.2450045135165055e-15 208.68999999999997 -6.2450045135165055e-15 189.18999999999997 -6.2450045135165055e-15 169.68999999999997 C 0.41332999999999376 169.96999999999997 0.7633299999999937 169.96999999999997 1.0499999999999938 169.68999999999997 C 1.4566699999999937 169.28999999999996 1.6699999999999937 169.08332999999996 1.6899999999999937 169.06999999999996 C 15.036669999999994 160.28999999999996 28.159999999999993 152.36999999999998 41.05999999999999 145.30999999999997 C 62.09332999999999 133.80999999999997 84.24667 124.10666999999998 107.51999999999998 116.19999999999997 C 146.40667 102.98666999999998 186.37667 96.32666999999998 227.42999999999998 96.21999999999997 C 230.42999999999998 96.21332999999997 234.13666999999998 96.30999999999997 238.54999999999998 96.50999999999998 C 242.25666999999999 96.67666999999997 245.96332999999998 96.82666999999998 249.67 96.95999999999998 C 256.63 97.21999999999998 262.18 97.53999999999998 266.32 97.91999999999997 C 294.59333 100.53332999999998 322.23667 106.31332999999998 349.25 115.25999999999998 C 374.65667 123.68666999999998 398.5 135.20666999999997 420.78 149.82 C 426.94667 153.85999999999999 432.45333 157.62 437.29999999999995 161.1 C 457.06666999999993 175.30667 474.28 192.20999999999998 488.93999999999994 211.81 C 490.09999999999997 213.37 492.18999999999994 217.01667 495.2099999999999 222.75 C 495.2833299999999 222.89 495.3733299999999 222.99667 495.4799999999999 223.07 C 495.9199999999999 223.41666999999998 496.0299999999999 223.24667 495.8099999999999 222.56 C 490.8699999999999 207 484.4266699999999 192.09667000000002 476.4799999999999 177.85 C 462.5999999999999 152.98333 443.8466699999999 132.62 420.2199999999999 116.75999999999999 C 407.7399999999999 108.38667 393.6033299999999 101.02999999999999 377.80999999999995 94.69 C 341.53 80.11667 304.59999999999997 71.15 267.0199999999999 67.78999999999999 C 246.77332999999993 65.97667 226.51666999999992 65.88667 206.24999999999991 67.52 C 178.2166699999999 69.77333 151.0499999999999 75.85 124.74999999999991 85.75 C 104.45666999999992 93.39 85.81332999999992 102.64667 68.81999999999991 113.52 C 64.1199999999999 116.52667 59.906669999999906 119.56333 56.17999999999991 122.63 C 52.15999999999991 125.93666999999999 48.299999999999905 129.42667 44.59999999999991 133.1 C 41.02666999999991 136.65332999999998 38.38999999999991 139.1 36.68999999999991 140.44 C 24.63666999999991 149.92 12.406669999999913 159.17 -8.526512829121202e-14 168.19 C -8.526512829121202e-14 156.02333 -8.526512829121202e-14 143.85667 -8.526512829121202e-14 131.69 C 0.3533299999999147 131.86333 0.5999999999999147 131.81333 0.7399999999999147 131.54 C 0.8533299999999148 131.30667 0.9299999999999147 131.16666999999998 0.9699999999999147 131.12 C 4.176669999999914 127.04 6.499999999999915 123.98 7.939999999999914 121.94 C 28.626669999999912 92.53999999999999 41.91666999999991 74.08 47.80999999999991 66.56 C 66.08999999999992 43.24 85.8933299999999 21.293330000000005 107.21999999999991 0.7199999999999989 C 107.42666999999992 0.5266699999999989 107.5399999999999 0.28666999999999887 107.55999999999992 -1.1102230246251565e-15 z M 233.52 155.21 C 233.46356 155.21 233.41116000000002 155.22732000000002 233.36784 155.25693 C 233.41042 155.22887 233.46142 155.21253000000002 233.51623 155.21253000000002 C 252.85623 154.85920000000002 271.84956 154.8692 290.49623 155.24253000000002 C 290.79080000000005 155.24762 291.0366 155.45529000000002 291.07623 155.73253000000003 C 291.22956 156.75253000000004 291.30623 157.77920000000003 291.30623 158.81253000000004 C 291.29956000000004 160.65253000000004 291.29623000000004 161.61253000000005 291.29623000000004 161.69253000000003 C 291.49623 172.69920000000002 287.7529 181.48253000000003 280.06623 188.04253000000003 C 279.04384000000005 188.91497000000004 278.00643 189.70443000000003 276.954 190.41093000000004 C 278.00773 189.70379000000003 279.0464 188.91347000000005 280.07001 188.03999000000005 C 287.75668 181.47999000000004 291.50001000000003 172.69666000000004 291.30001000000004 161.68999000000005 C 291.30001000000004 161.60999000000004 291.30334000000005 160.64999000000006 291.31001000000003 158.80999000000006 C 291.31001000000003 157.77666000000005 291.23334000000006 156.74999000000005 291.08001 155.72999000000004 C 291.04038 155.45275000000004 290.79458 155.24508000000003 290.50001000000003 155.23999000000003 C 271.85334 154.86666000000002 252.86001000000005 154.85666000000003 233.52001000000004 155.20999000000003 z" stroke-linecap="round" />
</g>
<g transform="matrix(1 0 0 1 69.75 331.01)" id="6OqLP2DIdMoXX6_8CrSyX"  >
<path style="stroke: none; stroke-width: 1; stroke-dasharray: none; stroke-linecap: butt; stroke-dashoffset: 0; stroke-linejoin: miter; stroke-miterlimit: 4; fill: rgb(255,255,255); fill-rule: nonzero; opacity: 1;" vector-effect="non-scaling-stroke"  transform=" translate(-0.25, -261.51)" d="M 0 228.19 Q 0.1 228.22 0.21 228.25 Q 0.5 230.33 0.5 234.75 Q 0.51 264.12 0.32 293.5 Q 0.31 295.5 0 291.69 Q 0 259.94 0 228.19 Z" stroke-linecap="round" />
</g>
<g transform="matrix(1 0 0 1 312.16 410.74)" id="OsELZgJ7Mu9KeRAWcpOaQ"  >
<path style="stroke: none; stroke-width: 1; stroke-dasharray: none; stroke-linecap: butt; stroke-dashoffset: 0; stroke-linejoin: miter; stroke-miterlimit: 4; fill: rgb(55,45,151); fill-rule: nonzero; opacity: 1;" vector-effect="non-scaling-stroke"  transform=" translate(-242.66, -341.24)" d="M 0 298.94 Q 0 296.94 0 294.94 Q 21.52 309.48 49.44 320.06 Q 62.96 325.19 81.86 335.45 Q 111.93 351.78 143.14 365.77 Q 187.57 385.7 236 386.12 Q 246.36 386.21 255.96 385.21 Q 288.3 381.84 317.25 368.25 Q 337.56 358.72 357.83 344.53 Q 381.37 328.06 412.81 303.81 Q 427.88 292.2 447.01 281.78 Q 465.35 271.79 484.14 263.14 Q 485.54 262.5 484.95 263.92 Q 483.35 267.71 481.66 271.45 Q 479.97 275.19 477.94 278.77 Q 466.8 298.49 454.56 313.31 Q 406.38 371.65 336.44 401.69 Q 317.87 409.66 298.65 413.74 Q 289.43 415.7 278.94 417.12 Q 259.83 419.72 237 419.75 Q 210.53 419.79 191.67 417.41 Q 155.02 412.79 121.56 397.19 Q 84.48 379.9 52.08 352.29 Q 44.96 346.22 37.36 338.75 Q 18.96 320.67 3.19 301.31 Q 1.79 299.59 0 298.94 Z" stroke-linecap="round" />
</g>
<g transform="matrix(1 0 0 1 320 493.3)" id="RJFiAMgJWdeDpj8Xq0ypW"  >
<path style="stroke: none; stroke-width: 1; stroke-dasharray: none; stroke-linecap: butt; stroke-dashoffset: 0; stroke-linejoin: miter; stroke-miterlimit: 4; fill: rgb(55,45,151); fill-rule: nonzero; opacity: 1;" vector-effect="non-scaling-stroke"  transform=" translate(-250.5, -423.8)" d="M 501 443.81 Q 501 448.31 501 452.81 Q 499.96 470.47 489.31 483.06 Q 475.43 499.48 452.94 501 Q 303.69 501 154.44 501 Q 154.83 500.54 154.44 499.81 Q 152.22 495.7 149.62 493.13 Q 143.09 486.65 135.7 481.25 Q 129.9 477.02 122.26 473.03 Q 115.26 469.38 108 466.25 Q 96.8 461.43 85.56 456.7 Q 63.73 447.51 43.86 434.62 Q 21.28 419.99 0.87 402.47 Q 0.68 402.31 0.45 402.27 Q 0.22 402.22 0 402.19 Q 0 385.56 0 368.94 Q 28.24 399.76 64.4 420.29 Q 72.03 424.62 82.05 429.71 Q 118.8 448.36 158.77 458.94 Q 196.98 469.04 235.25 468.75 Q 266.22 468.51 289.12 449.27 Q 292.14 446.73 301.88 436.7 Q 309.17 429.2 314.69 424.19 Q 322.59 417.02 333.44 410.94 Q 338.94 407.85 354.59 400.37 Q 396.99 380.09 430.14 346.86 Q 430.5 346.5 430.49 347 Q 430.27 362.53 430.75 366.5 Q 433.27 387.49 445.06 403.94 Q 465.97 433.1 501 443.81 Z" stroke-linecap="round" />
</g>
<g transform="matrix(1 0 0 1 146.87 521.1)" id="vl7NowUH-6AAKaB-mAunj"  >
<path style="stroke: none; stroke-width: 1; stroke-dasharray: none; stroke-linecap: butt; stroke-dashoffset: 0; stroke-linejoin: miter; stroke-miterlimit: 4; fill: rgb(255,255,255); fill-rule: nonzero; opacity: 1;" vector-effect="non-scaling-stroke"  transform=" translate(-77.37, -451.6)" d="M 0 402.19 Q 0.22 402.22 0.45 402.27 Q 0.68 402.31 0.87 402.47 Q 21.28 419.99 43.86 434.62 Q 63.73 447.51 85.56 456.7 Q 96.8 461.43 108 466.25 Q 115.26 469.38 122.26 473.03 Q 129.9 477.02 135.7 481.25 Q 143.09 486.65 149.62 493.13 Q 152.22 495.7 154.44 499.81 Q 154.83 500.54 154.44 501 Q 100.94 501 47.44 501 Q 31.03 499.76 19.06 490.19 Q 1.36 476.03 0 452.44 Q 0 427.31 0 402.19 Z" stroke-linecap="round" />
</g>
<g transform="matrix(1.01 0 0 1.01 306.24 305.31)" id="05SpRW_CNao0E4R_Mp-gX"  >
<path style="stroke: rgb(87,21,230); stroke-width: 0; stroke-dasharray: none; stroke-linecap: butt; stroke-dashoffset: 0; stroke-linejoin: miter; stroke-miterlimit: 4; fill: rgb(55,45,151); fill-rule: nonzero; opacity: 1;" vector-effect="non-scaling-stroke"  transform=" translate(0, 0)" d="M 0 -133.64162 C 73.77018 -133.64162 133.64162 -73.77016999999998 133.64162 0 C 133.64162 73.77018 73.77016999999998 133.64162 0 133.64162 C -73.77018 133.64162 -133.64162 73.77016999999998 -133.64162 0 C -133.64162 -73.77018 -73.77016999999998 -133.64162 0 -133.64162 z" stroke-linecap="round" />
</g>
</svg>